<svg version="1.1" id="Layer_1" xmlns="http://www.w3.org/2000/svg" xmlns:xlink="http://www.w3.org/1999/xlink" x="0px" y="0px"
	 width="100%" viewBox="0 0 424 424" enable-background="new 0 0 424 424" xml:space="preserve">
<path fill="#FFFFFF" opacity="1.000000" stroke="none" 
	d="
M289.000000,425.000000 
	C194.000015,425.000000 99.499992,424.976227 5.000155,425.095673 
	C1.576065,425.100006 0.902311,424.423828 0.905057,420.999969 
	C1.016267,282.333374 1.016266,143.666718 0.905073,5.000161 
	C0.902327,1.576534 1.576006,0.902304 4.999991,0.905050 
	C143.666550,1.016270 282.333221,1.016263 420.999817,0.905079 
	C424.423309,0.902334 425.097748,1.575868 425.095001,4.999940 
	C424.983765,143.666504 424.983734,282.333160 425.094940,420.999756 
	C425.097656,424.423157 424.425964,425.109741 420.999847,425.098114 
	C377.166962,424.949432 333.333405,425.000000 289.000000,425.000000 
z"/>
<path fill="#020202" opacity="1.000000" stroke="none" 
	d="
M76.470993,145.063354 
	C78.765778,147.666855 80.859940,149.920929 84.491280,149.917740 
	C112.106789,149.893433 139.722336,149.904434 168.501526,149.904434 
	C153.774933,141.008301 146.003998,128.304947 142.549622,112.912804 
	C135.171387,80.036560 157.638290,47.520966 192.547928,43.726940 
	C207.568817,42.094444 221.902390,45.073658 236.342102,48.043945 
	C238.649582,48.518600 240.249176,49.659309 241.122940,52.274811 
	C243.674316,59.912037 246.647049,67.408501 249.794128,75.873299 
	C245.463638,74.099052 243.735336,71.011681 241.564102,68.556992 
	C223.004822,47.574970 193.417465,45.546627 174.049133,55.372375 
	C152.851791,66.125984 144.956650,94.933609 158.081985,113.470680 
	C164.443649,122.455338 174.308502,126.391350 184.212875,129.905884 
	C198.856262,135.102051 213.726074,139.689545 227.906891,146.110718 
	C231.935959,147.935104 235.425888,150.730057 240.413834,150.047653 
	C244.503143,149.488220 248.237747,148.903030 250.844208,144.399658 
	C251.393341,148.403168 249.251114,150.879150 248.275803,153.649933 
	C247.670822,155.368637 247.238434,156.658371 249.368149,157.605423 
	C273.436401,168.308319 277.173737,201.185532 265.330627,223.041443 
	C258.981171,234.759064 250.020767,243.956131 238.757217,250.826767 
	C235.281479,252.946945 235.376617,254.298157 237.412186,257.436157 
	C254.236191,283.371765 270.898254,309.415955 290.649597,333.288025 
	C299.035309,343.423248 308.418854,352.070099 321.955627,355.052002 
	C332.798676,357.440491 342.653412,355.171600 352.301270,350.430389 
	C353.415222,349.882996 354.768494,347.611267 356.019073,349.516205 
	C357.383026,351.593903 354.810516,352.241791 353.644104,353.089600 
	C345.145020,359.267426 335.447906,362.487823 325.174194,363.985443 
	C310.321808,366.150452 295.925842,365.156555 283.361023,355.860779 
	C274.298859,349.156372 267.676270,340.057404 260.861267,331.239227 
	C244.383820,309.918610 229.689682,287.354095 215.031738,264.776123 
	C213.188309,261.936646 211.292786,260.838318 207.884644,260.947968 
	C198.394135,261.253204 188.889130,261.214691 179.391647,261.123352 
	C176.868958,261.099121 175.931900,261.652313 175.943909,264.395599 
	C176.062775,291.561249 175.782593,318.731384 176.181763,345.891937 
	C176.366287,358.447632 180.340195,361.274902 190.524887,361.015900 
	C191.202637,360.998627 191.829147,361.144775 191.952789,362.505585 
	C172.972397,362.505585 154.037476,362.505585 133.853500,362.505585 
	C136.835083,360.328918 139.260132,360.680756 141.330261,360.327881 
	C146.913940,359.376099 149.915237,356.328674 150.429428,350.757507 
	C150.658661,348.273865 150.968796,345.783234 150.972519,343.295380 
	C151.011917,316.962280 150.926849,290.628662 151.082123,264.296417 
	C151.102463,260.849060 150.365540,259.643951 146.770386,259.912109 
	C143.011978,260.192413 137.989319,261.162018 135.742432,259.236328 
	C133.372498,257.205170 135.046021,252.052292 135.027542,248.270065 
	C134.953552,233.103867 134.974960,217.937012 135.030167,202.770645 
	C135.035828,201.212524 134.411987,199.494339 136.519165,197.008713 
	C137.525482,213.074417 138.610794,228.324814 150.996964,240.819443 
	C150.996964,238.068161 150.996964,236.318573 150.996964,234.568985 
	C150.996933,213.069122 151.021103,191.569244 150.988129,170.069427 
	C150.967285,156.481094 150.457199,156.003036 137.115143,156.003036 
	C123.281898,156.003036 109.448639,155.991058 95.615417,156.006866 
	C84.797363,156.019226 84.797379,156.034546 84.313416,167.020081 
	C81.505653,160.339005 78.697891,153.657928 75.844070,146.613098 
	C75.579033,145.765823 75.666336,145.362152 76.470993,145.063354 
z"/>
<path fill="#414141" opacity="1.000000" stroke="none" 
	d="
M76.762741,144.757324 
	C76.585373,145.318802 76.339096,145.562393 75.945404,146.027679 
	C74.921089,145.335297 73.892326,144.170898 75.075462,143.132217 
	C75.901688,142.406876 76.206894,143.884018 76.762741,144.757324 
z"/>
<path fill="#FEFEFE" opacity="1.000000" stroke="none" 
	d="
M176.001312,187.000000 
	C176.001312,177.679504 176.234146,168.849991 175.893829,160.042648 
	C175.744751,156.184372 177.272522,155.509811 180.434998,155.995789 
	C181.252762,156.121445 182.165314,155.969147 182.895554,156.275421 
	C198.141739,162.670120 214.363892,166.693817 228.884750,174.811462 
	C237.551727,179.656586 245.690964,185.539703 248.307465,195.794464 
	C256.167908,226.601791 239.711975,246.559357 211.850052,251.811630 
	C201.193176,253.820541 190.394135,253.410980 179.598969,252.163788 
	C176.423004,251.796844 175.930756,250.711151 175.945297,247.911789 
	C176.049973,227.774979 176.001328,207.637360 176.001312,187.000000 
z"/>
</svg>